<svg width="34" height="32" viewBox="0 0 34 32" fill="none" xmlns="http://www.w3.org/2000/svg">
<ellipse cx="17.04" cy="16" rx="16.32" ry="16" fill="#F0998D"/>
<path d="M14.2487 6.26099V9.47585C14.2487 9.47585 11.7283 9.66636 11.7687 11.9343C11.7375 12.5281 11.9366 13.1115 12.3259 13.5675C12.7151 14.0234 13.2659 14.3182 13.8676 14.3927H19.9721C19.9721 14.3927 25.3931 14.4709 25.3148 20.4445C25.2486 25.3828 19.5889 25.7393 19.5889 25.7393V22.5244C19.5889 22.5244 21.9894 22.3325 22.0689 20.2554C22.1058 19.9172 22.0687 19.5752 21.9602 19.2521C21.8517 18.9291 21.6742 18.6324 21.4395 18.3819C21.2048 18.1314 20.9184 17.9327 20.5993 17.7993C20.2802 17.6658 19.9357 17.6006 19.5889 17.6079H13.6765C13.6765 17.6079 8.47845 17.1416 8.52497 11.9343C8.57078 6.82586 13.3057 6.27116 14.2487 6.26099Z" fill="white"/>
</svg>
