<svg width="119" height="27" viewBox="0 0 119 27" fill="none" xmlns="http://www.w3.org/2000/svg">
<g filter="url(#filter0_d_4_143)">
<path d="M23.6234 11.4651C23.5848 11.3496 23.4822 11.2653 23.3586 11.2478L17.4299 10.4089L14.7786 5.17806C14.7235 5.06893 14.6095 5 14.4849 5C14.3604 5 14.246 5.06893 14.1913 5.17806L11.5396 10.4092L5.61087 11.2481C5.48732 11.2657 5.38507 11.3496 5.34607 11.4654C5.30772 11.5806 5.33951 11.7076 5.42898 11.7922L9.71934 15.864L8.70632 21.6136C8.68534 21.7333 8.73581 21.8542 8.83643 21.9257C8.9377 21.9978 9.07174 22.0071 9.18153 21.95L14.4849 19.2357L19.7876 21.95C19.8355 21.9745 19.8883 21.9867 19.9404 21.9867C20.0082 21.9867 20.0757 21.9662 20.1331 21.9257C20.234 21.8542 20.2845 21.7333 20.2632 21.6136L19.2505 15.8643L23.5408 11.7922C23.63 11.707 23.6621 11.5803 23.6234 11.4651Z" fill="url(#paint0_linear_4_143)"/>
</g>
<g filter="url(#filter1_d_4_143)">
<path d="M46.0021 11.4651C45.9634 11.3496 45.8608 11.2653 45.7373 11.2478L39.8086 10.4089L37.1572 5.17806C37.1022 5.06893 36.9881 5 36.8636 5C36.739 5 36.6247 5.06893 36.5699 5.17806L33.9182 10.4092L27.9895 11.2481C27.866 11.2657 27.7637 11.3496 27.7247 11.4654C27.6864 11.5806 27.7182 11.7076 27.8076 11.7922L32.098 15.864L31.085 21.6136C31.064 21.7333 31.1145 21.8542 31.2151 21.9257C31.3164 21.9978 31.4504 22.0071 31.5602 21.95L36.8636 19.2357L42.1663 21.95C42.2142 21.9745 42.2669 21.9867 42.319 21.9867C42.3869 21.9867 42.4544 21.9662 42.5117 21.9257C42.6127 21.8542 42.6631 21.7333 42.6418 21.6136L41.6291 15.8643L45.9195 11.7922C46.0087 11.707 46.0408 11.5803 46.0021 11.4651Z" fill="url(#paint1_linear_4_143)"/>
</g>
<g filter="url(#filter2_d_4_143)">
<path d="M68.3803 11.4651C68.3416 11.3496 68.239 11.2653 68.1155 11.2478L62.1868 10.4089L59.5354 5.17806C59.4803 5.06893 59.3663 5 59.2417 5C59.1172 5 59.0028 5.06893 58.9481 5.17806L56.2964 10.4092L50.3677 11.2481C50.2442 11.2657 50.1419 11.3496 50.1029 11.4654C50.0646 11.5806 50.0963 11.7076 50.1858 11.7922L54.4762 15.864L53.4632 21.6136C53.4422 21.7333 53.4926 21.8542 53.5933 21.9257C53.6945 21.9978 53.8286 22.0071 53.9384 21.95L59.2417 19.2357L64.5445 21.95C64.5923 21.9745 64.6451 21.9867 64.6972 21.9867C64.765 21.9867 64.8326 21.9662 64.8899 21.9257C64.9909 21.8542 65.0413 21.7333 65.02 21.6136L64.0073 15.8643L68.2977 11.7922C68.3868 11.707 68.4189 11.5803 68.3803 11.4651Z" fill="url(#paint2_linear_4_143)"/>
</g>
<g filter="url(#filter3_d_4_143)">
<path d="M90.7587 11.4651C90.72 11.3496 90.6174 11.2653 90.4939 11.2478L84.5652 10.4089L81.9138 5.17806C81.8588 5.06893 81.7447 5 81.6202 5C81.4956 5 81.3813 5.06893 81.3265 5.17806L78.6748 10.4092L72.7461 11.2481C72.6226 11.2657 72.5203 11.3496 72.4813 11.4654C72.443 11.5806 72.4748 11.7076 72.5642 11.7922L76.8546 15.864L75.8416 21.6136C75.8206 21.7333 75.8711 21.8542 75.9717 21.9257C76.073 21.9978 76.207 22.0071 76.3168 21.95L81.6202 19.2357L86.9229 21.95C86.9707 21.9745 87.0235 21.9867 87.0756 21.9867C87.1435 21.9867 87.211 21.9662 87.2683 21.9257C87.3693 21.8542 87.4197 21.7333 87.3984 21.6136L86.3857 15.8643L90.6761 11.7922C90.7652 11.707 90.7974 11.5803 90.7587 11.4651Z" fill="url(#paint3_linear_4_143)"/>
</g>
<g filter="url(#filter4_d_4_143)">
<path d="M113.136 11.4651C113.097 11.3496 112.995 11.2653 112.871 11.2478L106.943 10.4089L104.291 5.17806C104.236 5.06893 104.122 5 103.998 5C103.873 5 103.759 5.06893 103.704 5.17806L101.052 10.4092L95.1236 11.2481C95 11.2657 94.8978 11.3496 94.8588 11.4654C94.8204 11.5806 94.8522 11.7076 94.9417 11.7922L99.232 15.864L98.219 21.6136C98.198 21.7333 98.2485 21.8542 98.3491 21.9257C98.4504 21.9978 98.5844 22.0071 98.6942 21.95L103.998 19.2357L109.3 21.95C109.348 21.9745 109.401 21.9867 109.453 21.9867C109.521 21.9867 109.588 21.9662 109.646 21.9257C109.747 21.8542 109.797 21.7333 109.776 21.6136L108.763 15.8643L113.054 11.7922C113.143 11.707 113.175 11.5803 113.136 11.4651Z" fill="url(#paint4_linear_4_143)"/>
</g>
<defs>
<filter id="filter0_d_4_143" x="0.330078" y="0" width="28.3096" height="26.9871" filterUnits="userSpaceOnUse" color-interpolation-filters="sRGB">
<feFlood flood-opacity="0" result="BackgroundImageFix"/>
<feColorMatrix in="SourceAlpha" type="matrix" values="0 0 0 0 0 0 0 0 0 0 0 0 0 0 0 0 0 0 127 0" result="hardAlpha"/>
<feOffset/>
<feGaussianBlur stdDeviation="2.5"/>
<feComposite in2="hardAlpha" operator="out"/>
<feColorMatrix type="matrix" values="0 0 0 0 0.94902 0 0 0 0 0.815686 0 0 0 0 0.388235 0 0 0 0.36 0"/>
<feBlend mode="normal" in2="BackgroundImageFix" result="effect1_dropShadow_4_143"/>
<feBlend mode="normal" in="SourceGraphic" in2="effect1_dropShadow_4_143" result="shape"/>
</filter>
<filter id="filter1_d_4_143" x="22.7087" y="0" width="28.3096" height="26.9871" filterUnits="userSpaceOnUse" color-interpolation-filters="sRGB">
<feFlood flood-opacity="0" result="BackgroundImageFix"/>
<feColorMatrix in="SourceAlpha" type="matrix" values="0 0 0 0 0 0 0 0 0 0 0 0 0 0 0 0 0 0 127 0" result="hardAlpha"/>
<feOffset/>
<feGaussianBlur stdDeviation="2.5"/>
<feComposite in2="hardAlpha" operator="out"/>
<feColorMatrix type="matrix" values="0 0 0 0 0.94902 0 0 0 0 0.815686 0 0 0 0 0.388235 0 0 0 0.36 0"/>
<feBlend mode="normal" in2="BackgroundImageFix" result="effect1_dropShadow_4_143"/>
<feBlend mode="normal" in="SourceGraphic" in2="effect1_dropShadow_4_143" result="shape"/>
</filter>
<filter id="filter2_d_4_143" x="45.0869" y="0" width="28.3096" height="26.9871" filterUnits="userSpaceOnUse" color-interpolation-filters="sRGB">
<feFlood flood-opacity="0" result="BackgroundImageFix"/>
<feColorMatrix in="SourceAlpha" type="matrix" values="0 0 0 0 0 0 0 0 0 0 0 0 0 0 0 0 0 0 127 0" result="hardAlpha"/>
<feOffset/>
<feGaussianBlur stdDeviation="2.5"/>
<feComposite in2="hardAlpha" operator="out"/>
<feColorMatrix type="matrix" values="0 0 0 0 0.94902 0 0 0 0 0.815686 0 0 0 0 0.388235 0 0 0 0.36 0"/>
<feBlend mode="normal" in2="BackgroundImageFix" result="effect1_dropShadow_4_143"/>
<feBlend mode="normal" in="SourceGraphic" in2="effect1_dropShadow_4_143" result="shape"/>
</filter>
<filter id="filter3_d_4_143" x="67.4653" y="0" width="28.3096" height="26.9871" filterUnits="userSpaceOnUse" color-interpolation-filters="sRGB">
<feFlood flood-opacity="0" result="BackgroundImageFix"/>
<feColorMatrix in="SourceAlpha" type="matrix" values="0 0 0 0 0 0 0 0 0 0 0 0 0 0 0 0 0 0 127 0" result="hardAlpha"/>
<feOffset/>
<feGaussianBlur stdDeviation="2.5"/>
<feComposite in2="hardAlpha" operator="out"/>
<feColorMatrix type="matrix" values="0 0 0 0 0.94902 0 0 0 0 0.815686 0 0 0 0 0.388235 0 0 0 0.36 0"/>
<feBlend mode="normal" in2="BackgroundImageFix" result="effect1_dropShadow_4_143"/>
<feBlend mode="normal" in="SourceGraphic" in2="effect1_dropShadow_4_143" result="shape"/>
</filter>
<filter id="filter4_d_4_143" x="89.8428" y="0" width="28.3096" height="26.9871" filterUnits="userSpaceOnUse" color-interpolation-filters="sRGB">
<feFlood flood-opacity="0" result="BackgroundImageFix"/>
<feColorMatrix in="SourceAlpha" type="matrix" values="0 0 0 0 0 0 0 0 0 0 0 0 0 0 0 0 0 0 127 0" result="hardAlpha"/>
<feOffset/>
<feGaussianBlur stdDeviation="2.5"/>
<feComposite in2="hardAlpha" operator="out"/>
<feColorMatrix type="matrix" values="0 0 0 0 0.94902 0 0 0 0 0.815686 0 0 0 0 0.388235 0 0 0 0.36 0"/>
<feBlend mode="normal" in2="BackgroundImageFix" result="effect1_dropShadow_4_143"/>
<feBlend mode="normal" in="SourceGraphic" in2="effect1_dropShadow_4_143" result="shape"/>
</filter>
<linearGradient id="paint0_linear_4_143" x1="9.39873" y1="7.05555" x2="18.7126" y2="21.1523" gradientUnits="userSpaceOnUse">
<stop stop-color="#F2D063"/>
<stop offset="1" stop-color="#F8AE2E"/>
</linearGradient>
<linearGradient id="paint1_linear_4_143" x1="31.7774" y1="7.05555" x2="41.0912" y2="21.1523" gradientUnits="userSpaceOnUse">
<stop stop-color="#F2D063"/>
<stop offset="1" stop-color="#F8AE2E"/>
</linearGradient>
<linearGradient id="paint2_linear_4_143" x1="54.1556" y1="7.05555" x2="63.4694" y2="21.1523" gradientUnits="userSpaceOnUse">
<stop stop-color="#F2D063"/>
<stop offset="1" stop-color="#F8AE2E"/>
</linearGradient>
<linearGradient id="paint3_linear_4_143" x1="76.534" y1="7.05555" x2="85.8478" y2="21.1523" gradientUnits="userSpaceOnUse">
<stop stop-color="#F2D063"/>
<stop offset="1" stop-color="#F8AE2E"/>
</linearGradient>
<linearGradient id="paint4_linear_4_143" x1="98.9114" y1="7.05555" x2="108.225" y2="21.1523" gradientUnits="userSpaceOnUse">
<stop stop-color="#F2D063"/>
<stop offset="1" stop-color="#F8AE2E"/>
</linearGradient>
</defs>
</svg>
